<svg data-v-fde0c5aa="" xmlns="http://www.w3.org/2000/svg" viewBox="0 0 300 300" class="iconLeft"><!----><defs data-v-fde0c5aa=""><!----></defs><rect data-v-fde0c5aa="" fill="#FBF3EF" x="0" y="0" width="300px" height="300px" class="logo-background-square"></rect><defs data-v-fde0c5aa=""><!----></defs><g data-v-fde0c5aa="" id="4276eb34-3a7d-4bf6-8ea6-0070663efe03" fill="#2F190E" transform="matrix(2.9626449168319424,0,0,2.9626449168319424,102.20953308219022,109.6784022863615)"><path d="M9.30 10.74L9.28 13.55L9.28 13.55Q9.28 15.44 9.46 16.65L9.46 16.65L9.46 16.65Q9.63 17.85 10.18 18.61L10.18 18.61L10.18 18.61Q9.37 19.24 8.43 19.24L8.43 19.24L8.43 19.24Q7.55 19.24 7.06 18.60L7.06 18.60L7.06 18.60Q6.58 17.96 6.43 16.58L6.43 16.58L3.35 16.58L3.35 16.58Q3.25 16.95 3.25 17.29L3.25 17.29L3.25 17.29Q3.25 17.70 3.32 18.00L3.32 18.00L3.32 18.00Q3.39 18.31 3.54 18.61L3.54 18.61L3.54 18.61Q3.15 18.89 2.62 19.06L2.62 19.06L2.62 19.06Q2.09 19.24 1.58 19.24L1.58 19.24L1.58 19.24Q0.94 19.24 0.61 18.89L0.61 18.89L0.61 18.89Q0.28 18.54 0.28 17.86L0.28 17.86L0.28 17.86Q0.28 17.00 0.89 15.48L0.89 15.48L0.89 15.48Q1.50 13.96 3.14 10.75L3.14 10.75L2.67 9.56L2.67 9.56Q3.46 9.09 4.10 8.88L4.10 8.88L4.10 8.88Q4.75 8.68 5.50 8.68L5.50 8.68L5.50 8.68Q6.30 8.68 6.65 9.03L6.65 9.03L6.65 9.03Q7.31 8.68 7.83 8.68L7.83 8.68L7.83 8.68Q8.60 8.68 8.95 9.17L8.95 9.17L8.95 9.17Q9.30 9.66 9.30 10.74L9.30 10.74ZM3.91 14.91L6.34 14.91L6.34 14.74L6.34 14.74Q6.34 12.14 6.43 10.53L6.43 10.53L6.26 10.53L6.26 10.53Q4.72 12.96 3.91 14.91L3.91 14.91ZM14.67 19.18L14.67 19.18Q12.84 19.18 12.01 18.71L12.01 18.71L12.01 18.71Q11.19 18.24 11.19 17.44L11.19 17.44L11.19 17.44Q11.19 17.08 11.40 16.69L11.40 16.69L11.40 16.69Q11.61 16.30 11.98 16.02L11.98 16.02L11.98 16.02Q12.80 17.47 14.52 17.47L14.52 17.47L14.52 17.47Q14.98 17.47 15.47 17.26L15.47 17.26L15.47 17.26Q15.96 17.04 15.96 16.63L15.96 16.63L15.96 16.63Q15.96 16.38 15.64 16.23L15.64 16.23L15.64 16.23Q15.32 16.07 14.56 15.83L14.56 15.83L14.56 15.83Q13.68 15.57 13.09 15.31L13.09 15.31L13.09 15.31Q12.50 15.05 12.07 14.57L12.07 14.57L12.07 14.57Q11.63 14.08 11.63 13.33L11.63 13.33L11.63 13.33Q11.63 11.86 12.91 11.14L12.91 11.14L12.91 11.14Q14.18 10.43 16.11 10.43L16.11 10.43L16.11 10.43Q17.58 10.43 18.44 10.89L18.44 10.89L18.44 10.89Q19.29 11.34 19.29 12.08L19.29 12.08L19.29 12.08Q19.29 12.71 18.84 13.08L18.84 13.08L18.84 13.08Q18.40 13.44 17.77 13.44L17.77 13.44L17.77 13.44Q17.18 13.44 16.67 13.08L16.67 13.08L16.67 13.08Q16.17 12.71 15.88 12.01L15.88 12.01L15.88 12.01Q15.29 12.07 14.87 12.33L14.87 12.33L14.87 12.33Q14.45 12.60 14.45 12.99L14.45 12.99L14.45 12.99Q14.45 13.31 14.80 13.50L14.80 13.50L14.80 13.50Q15.15 13.68 15.95 13.92L15.95 13.92L15.95 13.92Q16.81 14.18 17.38 14.43L17.38 14.43L17.38 14.43Q17.95 14.69 18.36 15.18L18.36 15.18L18.36 15.18Q18.77 15.67 18.77 16.45L18.77 16.45L18.77 16.45Q18.77 17.39 18.13 18.00L18.13 18.00L18.13 18.00Q17.49 18.62 16.54 18.90L16.54 18.90L16.54 18.90Q15.60 19.18 14.67 19.18L14.67 19.18ZM27.99 15.89L27.99 15.89Q28.29 16.56 28.76 17.07L28.76 17.07L28.76 17.07Q29.23 17.57 29.96 17.86L29.96 17.86L29.96 17.86Q29.15 19.18 27.82 19.18L27.82 19.18L27.82 19.18Q27.09 19.18 26.57 18.72L26.57 18.72L26.57 18.72Q26.05 18.26 25.47 17.18L25.47 17.18L24.77 15.88L23.65 16.46L23.65 16.46Q23.63 16.63 23.63 16.98L23.63 16.98L23.63 16.98Q23.63 17.63 23.74 17.92L23.74 17.92L23.74 17.92Q23.84 18.21 24.07 18.49L24.07 18.49L24.07 18.49Q23.69 18.83 23.22 19.01L23.22 19.01L23.22 19.01Q22.75 19.18 22.33 19.18L22.33 19.18L22.33 19.18Q21.49 19.18 21.12 18.69L21.12 18.69L21.12 18.69Q20.75 18.20 20.75 17.16L20.75 17.16L20.75 17.16Q20.75 16.60 20.97 15.20L20.97 15.20L20.97 15.20Q21.20 13.79 21.60 11.56L21.60 11.56L21.60 11.56Q21.67 11.10 21.74 10.75L21.74 10.75L21.74 10.75Q21.81 10.39 21.85 10.12L21.85 10.12L21.07 9.00L21.07 9.00Q21.70 8.54 22.39 8.26L22.39 8.26L22.39 8.26Q23.07 7.98 23.69 7.98L23.69 7.98L23.69 7.98Q24.35 7.98 24.61 8.21L24.61 8.21L24.61 8.21Q24.88 8.44 24.88 8.97L24.88 8.97L24.88 8.97Q24.88 9.35 24.77 9.91L24.77 9.91L24.77 9.91Q24.67 10.47 24.44 11.48L24.44 11.48L24.44 11.48Q23.98 13.41 23.79 14.85L23.79 14.85L24.18 14.53L24.18 14.53Q25.09 13.80 25.56 13.38L25.56 13.38L25.56 13.38Q26.03 12.95 26.31 12.50L26.31 12.50L26.31 12.50Q26.60 12.05 26.60 11.56L26.60 11.56L26.60 11.56Q26.60 11.23 26.46 10.89L26.46 10.89L26.46 10.89Q27.41 10.43 28.21 10.43L28.21 10.43L28.21 10.43Q28.85 10.43 29.25 10.80L29.25 10.80L29.25 10.80Q29.64 11.17 29.64 11.77L29.64 11.77L29.64 11.77Q29.64 12.52 29.07 13.17L29.07 13.17L29.07 13.17Q28.50 13.83 27.26 14.56L27.26 14.56L27.99 15.89ZM32.52 19.19L32.52 19.19Q31.60 19.19 31.21 18.67L31.21 18.67L31.21 18.67Q30.81 18.14 30.81 17.02L30.81 17.02L30.81 17.02Q30.81 16.38 31.01 15.14L31.01 15.14L31.01 15.14Q31.21 13.90 31.70 11.19L31.70 11.19L30.95 9.69L30.95 9.69Q32.54 8.67 33.84 8.67L33.84 8.67L33.84 8.67Q34.82 8.67 35.42 9.12L35.42 9.12L35.42 9.12Q36.02 9.58 36.41 10.88L36.41 10.88L36.41 10.88Q36.81 12.18 37.03 14.73L37.03 14.73L37.20 14.73L37.20 14.73Q37.90 12.42 39.22 10.58L39.22 10.58L39.22 10.58Q40.54 8.75 42.48 8.75L42.48 8.75L42.48 8.75Q43.34 8.75 43.68 9.16L43.68 9.16L43.68 9.16Q44.02 9.56 44.02 10.26L44.02 10.26L44.02 10.26Q44.02 10.71 43.50 13.22L43.50 13.22L43.50 13.22Q43.44 13.48 43.27 14.34L43.27 14.34L43.27 14.34Q43.11 15.20 43.02 15.75L43.02 15.75L43.02 15.75Q42.94 16.30 42.94 16.53L42.94 16.53L42.94 16.53Q42.94 17.89 43.36 18.56L43.36 18.56L43.36 18.56Q42.52 19.19 41.62 19.19L41.62 19.19L41.62 19.19Q40.70 19.19 40.31 18.67L40.31 18.67L40.31 18.67Q39.91 18.14 39.91 17.02L39.91 17.02L39.91 17.02Q39.91 16.37 40.11 15.14L40.11 15.14L40.11 15.14Q40.31 13.92 40.74 11.69L40.74 11.69L40.60 11.69L40.60 11.69Q39.65 12.89 39.02 14.58L39.02 14.58L39.02 14.58Q38.39 16.27 38.25 17.61L38.25 17.61L38.25 17.61Q37.91 17.93 37.49 18.10L37.49 18.10L37.49 18.10Q37.07 18.26 36.67 18.26L36.67 18.26L36.67 18.26Q36.12 18.26 35.77 17.72L35.77 17.72L35.77 17.72Q35.42 17.18 35.18 15.76L35.18 15.76L35.18 15.76Q34.94 14.34 34.80 11.69L34.80 11.69L34.66 11.69L34.66 11.69Q34.33 13.13 34.08 14.57L34.08 14.57L34.08 14.57Q33.84 16.00 33.84 16.53L33.84 16.53L33.84 16.53Q33.84 17.89 34.26 18.56L34.26 18.56L34.26 18.56Q33.42 19.19 32.52 19.19L32.52 19.19ZM53.26 12.46L53.26 12.46Q53.26 13.43 52.60 14.13L52.60 14.13L52.60 14.13Q51.94 14.84 50.72 15.21L50.72 15.21L50.72 15.21Q49.49 15.58 47.81 15.58L47.81 15.58L47.81 15.71L47.81 15.71Q47.81 16.66 48.14 17.20L48.14 17.20L48.14 17.20Q48.47 17.74 49.06 17.74L49.06 17.74L49.06 17.74Q49.77 17.74 50.23 17.21L50.23 17.21L50.23 17.21Q50.69 16.69 50.72 15.83L50.72 15.83L50.72 15.83Q51.56 15.83 52.00 16.14L52.00 16.14L52.00 16.14Q52.44 16.45 52.44 17.04L52.44 17.04L52.44 17.04Q52.44 17.63 51.95 18.12L51.95 18.12L51.95 18.12Q51.46 18.61 50.62 18.89L50.62 18.89L50.62 18.89Q49.77 19.18 48.75 19.18L48.75 19.18L48.75 19.18Q47.00 19.18 46.02 18.26L46.02 18.26L46.02 18.26Q45.04 17.33 45.04 15.68L45.04 15.68L45.04 15.68Q45.04 14.18 45.75 12.99L45.75 12.99L45.75 12.99Q46.47 11.79 47.73 11.11L47.73 11.11L47.73 11.11Q48.99 10.43 50.55 10.43L50.55 10.43L50.55 10.43Q51.84 10.43 52.55 10.96L52.55 10.96L52.55 10.96Q53.26 11.49 53.26 12.46L53.26 12.46ZM50.08 12.07L50.08 12.07Q49.39 12.07 48.80 12.77L48.80 12.77L48.80 12.77Q48.20 13.47 47.95 14.53L47.95 14.53L47.95 14.53Q49.34 14.42 50.09 13.96L50.09 13.96L50.09 13.96Q50.83 13.50 50.83 12.75L50.83 12.75L50.83 12.75Q50.83 12.45 50.62 12.26L50.62 12.26L50.62 12.26Q50.41 12.07 50.08 12.07L50.08 12.07Z"></path></g><defs data-v-fde0c5aa=""><linearGradient data-v-fde0c5aa="" gradientTransform="rotate(25)" id="e695cea9-dd17-4913-a003-17e71ff9bf84" x1="0%" y1="0%" x2="100%" y2="0%"><stop data-v-fde0c5aa="" offset="0%" stop-color="#A92580" stop-opacity="1"></stop><stop data-v-fde0c5aa="" offset="100%" stop-color="#F7BC00" stop-opacity="1"></stop></linearGradient></defs><g data-v-fde0c5aa="" id="16431e4a-9b87-4bdf-b572-fa8815130288" stroke="none" fill="url(#e695cea9-dd17-4913-a003-17e71ff9bf84)" transform="matrix(1.5637210519510911,0,0,1.5637210519510911,40,124.98046316878253)"><path d="M9.382 8.675h13.943v13.943L32 31.293V0H.707zM22.618 23.325H8.675V9.382L0 .707V32h31.293z"></path></g><!----></svg>